PathFileType	4	(X/Y/Z)	2.trc
DataRate	CameraRate	NumFrames	NumMarkers	Units	OrigDataRate	OrigDataStartFrame	OrigNumFrames
147	147	4	50	mm	147	749	1496
Frame#	Time	L_IAS			R_IAS			L_TH1			L_TH2			L_TH3			L_TH4			L_FLE			L_FME			L_SK1			L_SK2			L_SK3			L_SK4			L_FAL			L_TAM			L_FCC			L_FM1			L_FM2			L_FM5			R_TH1			R_TH2			R_TH3			R_TH4			R_FLE			R_FME			R_SK2			R_SK1			R_SK3			R_SK4			R_FAL			R_TAM			R_FCC			R_FM1			R_FM2			R_FM5			R_IPS			L_IPS			CV7			L_SIA			R_SIA			TV10			L_SAE			R_SAE			L_ARM			R_ARM			L_HLE			R_HLE			L_RSP			L_USP			R_RSP			R_USP		
		X1	Y1	Z1	X2	Y2	Z2	X3	Y3	Z3	X4	Y4	Z4	X5	Y5	Z5	X6	Y6	Z6	X7	Y7	Z7	X8	Y8	Z8	X9	Y9	Z9	X10	Y10	Z10	X11	Y11	Z11	X12	Y12	Z12	X13	Y13	Z13	X14	Y14	Z14	X15	Y15	Z15	X16	Y16	Z16	X17	Y17	Z17	X18	Y18	Z18	X19	Y19	Z19	X20	Y20	Z20	X21	Y21	Z21	X22	Y22	Z22	X23	Y23	Z23	X24	Y24	Z24	X25	Y25	Z25	X26	Y26	Z26	X27	Y27	Z27	X28	Y28	Z28	X29	Y29	Z29	X30	Y30	Z30	X31	Y31	Z31	X32	Y32	Z32	X33	Y33	Z33	X34	Y34	Z34	X35	Y35	Z35	X36	Y36	Z36	X37	Y37	Z37	X38	Y38	Z38	X39	Y39	Z39	X40	Y40	Z40	X41	Y41	Z41	X42	Y42	Z42	X43	Y43	Z43	X44	Y44	Z44	X45	Y45	Z45	X46	Y46	Z46	X47	Y47	Z47	X48	Y48	Z48	X49	Y49	Z49	X50	Y50	Z50

749	5.088435	921.499649	628.931667	-672.720355	853.542668	614.194996	-400.982849	1065.662470	496.600114	-713.366763	1039.420609	469.946883	-736.587179	1094.855117	422.693401	-733.270363	1119.638557	448.602247	-710.016590	1124.201332	335.986510	-705.603634	1115.907703	326.881194	-576.323805	1066.109361	272.611102	-716.955957	1048.249587	307.473763	-732.458354	979.572265	277.869491	-738.653562	985.580595	227.777321	-715.467582	769.651341	209.620838	-703.560620	791.726105	206.436130	-618.300631	680.338070	244.756447	-663.089784	821.446775	91.163265	-629.554394	843.499713	92.195940	-669.070549	799.074530	104.416199	-736.173190	1015.925134	439.484671	-314.271077	1048.934068	466.358941	-324.870560	1095.433068	409.601313	-333.929433	1073.103104	372.155186	-325.910567	1065.637462	347.528445	-347.078233	1108.600902	374.516409	-459.632567	1073.735693	256.763044	-356.418941	1033.184281	278.135129	-350.717003	1043.084184	194.424312	-375.840685	1003.388227	212.473259	-368.671539	933.863707	22.141796	-471.045786	949.157911	52.027796	-555.018387	848.364694	2.781903	-521.057853	1046.424681	-11.017640	-556.529048	1065.045262	-2.918163	-506.250180	1037.929761	-23.049019	-454.835090	724.869728	693.412180	-520.608262	758.003046	702.354626	-610.235339	1007.074977	1093.134712	-460.231607	999.136583	957.516063	-593.050402	863.639781	977.480025	-447.113731	866.055907	899.990182	-515.184807	1155.019903	1047.236464	-505.226440	959.276467	1101.909384	-318.186756	1251.861797	1006.806426	-617.937306	817.141748	1108.889942	-237.279910	1371.806261	939.413911	-687.345162	695.184701	1107.467266	-146.122642	1608.403817	951.711757	-688.312918	1590.964505	925.163143	-740.904355	662.766363	1162.982443	95.598912	614.155452	1193.740784	61.383478
750	5.095238	922.802942	625.044719	-674.807339	851.459566	610.371858	-403.691921	1065.159899	491.556058	-717.361717	1038.800089	465.739113	-741.154656	1093.516865	417.721628	-738.547744	1118.533131	442.861069	-714.763084	1121.735693	330.313239	-712.314896	1112.434878	318.125548	-584.000043	1062.624657	268.187830	-725.215008	1045.601911	303.761489	-740.114457	976.632334	275.357390	-747.377262	981.840494	224.752814	-725.081970	765.821886	209.554300	-715.020182	787.339851	203.648810	-629.731289	676.597834	244.241799	-673.961175	816.488670	88.582341	-644.218631	838.296223	90.889748	-683.382395	795.007698	105.323514	-750.566727	1011.466209	438.221168	-313.143007	1044.600685	465.310662	-322.973314	1091.753913	408.864438	-331.082795	1069.523973	371.309821	-323.640176	1062.585687	346.627256	-345.072029	1106.459226	372.012247	-457.230743	1070.688769	255.997496	-354.967653	1029.917726	277.121587	-350.001701	1040.465253	193.576952	-375.355195	1000.528683	211.469973	-369.131148	933.684024	21.846687	-473.878509	951.053364	51.714649	-557.508367	849.478856	2.414340	-525.976704	1048.106970	-11.307207	-556.543932	1065.491129	-2.986576	-505.951474	1037.170623	-23.175707	-455.222691	725.026262	691.279406	-524.743926	759.562177	700.117851	-613.832867	1012.424921	1087.001179	-460.119140	1005.439546	951.686881	-593.401921	867.497020	973.544880	-449.301825	869.440596	896.341487	-517.436701	1160.042805	1039.707205	-501.822976	963.160648	1095.771588	-318.299020	1261.224174	999.392357	-610.517656	820.149454	1103.768619	-239.014715	1385.190996	932.370289	-673.823541	697.112302	1102.489698	-149.622568	1621.825156	947.185693	-662.558522	1607.494422	919.905060	-715.798237	656.307099	1155.918631	91.139638	608.815201	1186.874350	55.515933
751	5.102041	924.117844	621.427795	-676.827419	849.483289	606.664657	-406.423170	1064.694932	486.570327	-721.048703	1038.258199	461.639170	-745.467892	1092.207462	412.822744	-743.537938	1117.429205	437.151151	-719.171735	1119.217220	324.701367	-718.806552	1108.619892	309.427414	-591.570790	1058.996642	263.836356	-733.390477	1042.956820	300.138470	-747.649123	973.740015	272.972616	-756.087529	978.198763	222.039760	-734.813539	762.013099	209.716636	-726.790948	782.787238	201.110923	-641.505826	672.833067	244.034802	-685.332726	811.313179	86.298171	-659.142545	832.962954	89.791630	-698.022893	790.935226	106.478548	-765.171778	1007.338120	436.861989	-312.778352	1040.563295	464.163205	-321.909409	1088.300207	408.017856	-329.216139	1066.189759	370.352456	-322.310075	1059.720367	345.626416	-344.026865	1104.226223	369.588949	-455.963038	1067.771434	255.181931	-354.368086	1026.808543	276.059542	-350.113194	1037.979859	192.653809	-375.618982	997.806317	210.377865	-370.317472	933.457906	21.517138	-477.013012	952.869406	51.121823	-560.323907	850.609721	1.789976	-531.102960	1049.745807	-11.682095	-556.696657	1065.824322	-3.032907	-505.815461	1036.346167	-23.198625	-455.760187	725.245933	689.293294	-528.752265	761.154530	698.086673	-617.307252	1017.676632	1080.961334	-459.977505	1011.645655	945.913506	-593.620983	871.310298	969.670901	-451.419036	872.790032	892.786242	-519.578660	1164.914159	1032.320518	-498.406143	966.940707	1089.772522	-318.346133	1270.013832	992.047541	-603.121439	823.083018	1098.667032	-240.624081	1397.437385	925.304428	-660.407121	699.039759	1097.398194	-152.955521	1633.455032	942.600749	-637.456699	1622.143081	914.580264	-691.109683	650.222403	1148.739941	86.578431	603.845102	1179.912288	49.713340
752	5.108844	925.441385	618.081943	-678.775936	847.628381	603.079071	-409.170327	1064.275605	481.660990	-724.366918	1037.809869	457.654172	-749.462191	1090.950320	408.015255	-748.157088	1116.339115	431.499919	-723.161946	1116.676933	319.178463	-724.971459	1104.485442	300.862585	-598.915153	1055.322530	259.590960	-741.369723	1040.358230	296.613176	-754.959495	970.945552	270.711343	-764.680280	974.739693	219.640423	-744.534664	758.290999	210.078029	-738.786558	778.122784	198.820764	-653.533304	669.101631	244.105671	-697.136806	805.997092	84.303759	-674.205562	827.593606	88.881245	-712.844205	786.940604	107.840137	-779.871893	1003.603476	435.430062	-313.190832	1036.884244	462.938367	-321.700214	1085.138365	407.082494	-328.354313	1063.166603	369.301825	-321.940677	1057.110486	344.556478	-343.957788	1101.990732	367.307886	-455.812995	1065.037456	254.336918	-354.627640	1023.914067	274.984599	-351.060691	1035.674912	191.686428	-376.630277	995.274307	209.239940	-372.220948	933.190748	21.165782	-480.428773	954.603465	50.267664	-563.448751	851.745606	0.936484	-536.402590	1051.332372	-12.136856	-556.983129	1066.046605	-3.057765	-505.840887	1035.459485	-23.118230	-456.440799	725.530834	687.446264	-532.617626	762.773566	696.253212	-620.647203	1022.816504	1075.029054	-459.816823	1017.730123	940.201931	-593.714551	875.061789	965.860542	-453.462567	876.093755	889.321378	-521.604058	1169.624930	1025.085251	-495.003879	970.592042	1083.928635	-318.339514	1278.241211	984.773406	-595.810372	825.905600	1093.612579	-242.135390	1408.586720	918.206394	-647.210315	700.916758	1092.246209	-156.159609	1643.420044	937.944988	-613.162301	1635.022046	909.173847	-667.011816	644.430303	1141.482380	81.924820	599.169163	1172.905580	43.962746
